<svg width="500" height="400" viewBox="0 0 500 400" fill="none" xmlns="http://www.w3.org/2000/svg">
<rect width="500" height="400" fill="#B1DAFF"/>
<mask id="path-1-inside-1_3_4" fill="white">
<path d="M41 59H459V341H41V59Z"/>
</mask>
<path d="M41 59H459V341H41V59Z" fill="white"/>
<path d="M41 59V54H21V59H41ZM459 59H467V54H459V59ZM459 341V346H467V341H459ZM41 341H21V346H41V341ZM41 64H459V54H41V64ZM451 59V341H467V59H451ZM459 336H41V346H459V336ZM61 341V59H21V341H61Z" fill="#4B2000" mask="url(#path-1-inside-1_3_4)"/>
<line x1="251.5" y1="62" x2="251.5" y2="341" stroke="#4B2000" stroke-width="3"/>
<path d="M70 77C72.167 79.167 78.216 89.3217 80.5 84.5C84.087 76.9274 86.3522 77.7163 92.7778 82C100.559 87.1875 98.6988 76 104.5 76C107.88 76 111.369 79.0539 113.778 81.2222C116.419 83.599 121.752 75 125.556 75C128.628 75 134.501 82.6569 136.222 81.5556C141.691 78.0553 142.639 75.349 148 79.9444C149.242 81.0094 151.836 83.2571 153.556 82.9444C156.942 82.3288 157.657 77.1857 161 77C163.232 76.876 165.831 76.7743 167.778 78C169.287 78.9505 171.512 81.3772 173.444 79.4444C176.502 76.3867 176.982 71.2463 182 76C184.963 78.8071 190.7 82.7855 193.944 79C195.892 76.7281 194.764 75.2917 198.556 76.5556C201.049 77.3868 205.354 79.5792 206.778 82C208.55 85.0128 213.902 81 216.5 81C222.777 81 224.916 84.9024 229.222 88.7778C230.78 90.1802 231.394 80.8626 232 79.5C233.634 75.8243 236.881 75.5594 240 74" stroke="#4B2000" stroke-width="3" stroke-linecap="round"/>
<path d="M70 104C72.167 106.167 78.216 116.322 80.5 111.5C84.087 103.927 86.3522 104.716 92.7778 109C100.559 114.188 98.6988 103 104.5 103C107.88 103 111.369 106.054 113.778 108.222C116.419 110.599 121.752 102 125.556 102C128.628 102 134.501 109.657 136.222 108.556C141.691 105.055 142.639 102.349 148 106.944C149.242 108.009 151.836 110.257 153.556 109.944C156.942 109.329 157.657 104.186 161 104C163.232 103.876 165.831 103.774 167.778 105C169.287 105.95 171.512 108.377 173.444 106.444C176.502 103.387 176.982 98.2463 182 103C184.963 105.807 190.7 109.785 193.944 106C195.892 103.728 194.764 102.292 198.556 103.556C201.049 104.387 205.354 106.579 206.778 109C208.55 112.013 213.902 108 216.5 108C222.777 108 224.916 111.902 229.222 115.778C230.78 117.18 231.394 107.863 232 106.5C233.634 102.824 236.881 102.559 240 101" stroke="#4B2000" stroke-width="3" stroke-linecap="round"/>
<path d="M70 131C72.167 133.167 78.216 143.322 80.5 138.5C84.087 130.927 86.3522 131.716 92.7778 136C100.559 141.188 98.6988 130 104.5 130C107.88 130 111.369 133.054 113.778 135.222C116.419 137.599 121.752 129 125.556 129C128.628 129 134.501 136.657 136.222 135.556C141.691 132.055 142.639 129.349 148 133.944C149.242 135.009 151.836 137.257 153.556 136.944C156.942 136.329 157.657 131.186 161 131C163.232 130.876 165.831 130.774 167.778 132C169.287 132.95 171.512 135.377 173.444 133.444C176.502 130.387 176.982 125.246 182 130C184.963 132.807 190.7 136.785 193.944 133C195.892 130.728 194.764 129.292 198.556 130.556C201.049 131.387 205.354 133.579 206.778 136C208.55 139.013 213.902 135 216.5 135C222.777 135 224.916 138.902 229.222 142.778C230.78 144.18 231.394 134.863 232 133.5C233.634 129.824 236.881 129.559 240 128" stroke="#4B2000" stroke-width="3" stroke-linecap="round"/>
<path d="M70 158C72.167 160.167 78.216 170.322 80.5 165.5C84.087 157.927 86.3522 158.716 92.7778 163C100.559 168.188 98.6988 157 104.5 157C107.88 157 111.369 160.054 113.778 162.222C116.419 164.599 121.752 156 125.556 156C128.628 156 134.501 163.657 136.222 162.556C141.691 159.055 142.639 156.349 148 160.944C149.242 162.009 151.836 164.257 153.556 163.944C156.942 163.329 157.657 158.186 161 158C163.232 157.876 165.831 157.774 167.778 159C169.287 159.95 171.512 162.377 173.444 160.444C176.502 157.387 176.982 152.246 182 157C184.963 159.807 190.7 163.785 193.944 160C195.892 157.728 194.764 156.292 198.556 157.556C201.049 158.387 205.354 160.579 206.778 163C208.55 166.013 213.902 162 216.5 162C222.777 162 224.916 165.902 229.222 169.778C230.78 171.18 231.394 161.863 232 160.5C233.634 156.824 236.881 156.559 240 155" stroke="#4B2000" stroke-width="3" stroke-linecap="round"/>
<path d="M70 185C72.167 187.167 78.216 197.322 80.5 192.5C84.087 184.927 86.3522 185.716 92.7778 190C100.559 195.188 98.6988 184 104.5 184C107.88 184 111.369 187.054 113.778 189.222C116.419 191.599 121.752 183 125.556 183C128.628 183 134.501 190.657 136.222 189.556C141.691 186.055 142.639 183.349 148 187.944C149.242 189.009 151.836 191.257 153.556 190.944C156.942 190.329 157.657 185.186 161 185C163.232 184.876 165.831 184.774 167.778 186C169.287 186.95 171.512 189.377 173.444 187.444C176.502 184.387 176.982 179.246 182 184C184.963 186.807 190.7 190.785 193.944 187C195.892 184.728 194.764 183.292 198.556 184.556C201.049 185.387 205.354 187.579 206.778 190C208.55 193.013 213.902 189 216.5 189C222.777 189 224.916 192.902 229.222 196.778C230.78 198.18 231.394 188.863 232 187.5C233.634 183.824 236.881 183.559 240 182" stroke="#4B2000" stroke-width="3" stroke-linecap="round"/>
<path d="M70 212C72.167 214.167 78.216 224.322 80.5 219.5C84.087 211.927 86.3522 212.716 92.7778 217C100.559 222.188 98.6988 211 104.5 211C107.88 211 111.369 214.054 113.778 216.222C116.419 218.599 121.752 210 125.556 210C128.628 210 134.501 217.657 136.222 216.556C141.691 213.055 142.639 210.349 148 214.944C149.242 216.009 151.836 218.257 153.556 217.944C156.942 217.329 157.657 212.186 161 212C163.232 211.876 165.831 211.774 167.778 213C169.287 213.95 171.512 216.377 173.444 214.444C176.502 211.387 176.982 206.246 182 211C184.963 213.807 190.7 217.785 193.944 214C195.892 211.728 194.764 210.292 198.556 211.556C201.049 212.387 205.354 214.579 206.778 217C208.55 220.013 213.902 216 216.5 216C222.777 216 224.916 219.902 229.222 223.778C230.78 225.18 231.394 215.863 232 214.5C233.634 210.824 236.881 210.559 240 209" stroke="#4B2000" stroke-width="3" stroke-linecap="round"/>
<path d="M70 239C72.167 241.167 78.216 251.322 80.5 246.5C84.087 238.927 86.3522 239.716 92.7778 244C100.559 249.188 98.6988 238 104.5 238C107.88 238 111.369 241.054 113.778 243.222C116.419 245.599 121.752 237 125.556 237C128.628 237 134.501 244.657 136.222 243.556C141.691 240.055 142.639 237.349 148 241.944C149.242 243.009 151.836 245.257 153.556 244.944C156.942 244.329 157.657 239.186 161 239C163.232 238.876 165.831 238.774 167.778 240C169.287 240.95 171.512 243.377 173.444 241.444C176.502 238.387 176.982 233.246 182 238C184.963 240.807 190.7 244.785 193.944 241C195.892 238.728 194.764 237.292 198.556 238.556C201.049 239.387 205.354 241.579 206.778 244C208.55 247.013 213.902 243 216.5 243C222.777 243 224.916 246.902 229.222 250.778C230.78 252.18 231.394 242.863 232 241.5C233.634 237.824 236.881 237.559 240 236" stroke="#4B2000" stroke-width="3" stroke-linecap="round"/>
<path d="M70 266C72.167 268.167 78.216 278.322 80.5 273.5C84.087 265.927 86.3522 266.716 92.7778 271C100.559 276.188 98.6988 265 104.5 265C107.88 265 111.369 268.054 113.778 270.222C116.419 272.599 121.752 264 125.556 264C128.628 264 134.501 271.657 136.222 270.556C141.691 267.055 142.639 264.349 148 268.944C149.242 270.009 151.836 272.257 153.556 271.944C156.942 271.329 157.657 266.186 161 266C163.232 265.876 165.831 265.774 167.778 267C169.287 267.95 171.512 270.377 173.444 268.444C176.502 265.387 176.982 260.246 182 265C184.963 267.807 190.7 271.785 193.944 268C195.892 265.728 194.764 264.292 198.556 265.556C201.049 266.387 205.354 268.579 206.778 271C208.55 274.013 213.902 270 216.5 270C222.777 270 224.916 273.902 229.222 277.778C230.78 279.18 231.394 269.863 232 268.5C233.634 264.824 236.881 264.559 240 263" stroke="#4B2000" stroke-width="3" stroke-linecap="round"/>
<path d="M70 287C72.167 289.167 78.216 299.322 80.5 294.5C84.087 286.927 86.3522 287.716 92.7778 292C100.559 297.188 98.6988 286 104.5 286C107.88 286 111.369 289.054 113.778 291.222C116.419 293.599 121.752 285 125.556 285C128.628 285 134.501 292.657 136.222 291.556C141.691 288.055 142.639 285.349 148 289.944C149.242 291.009 151.836 293.257 153.556 292.944C156.942 292.329 157.657 287.186 161 287C163.232 286.876 165.831 286.774 167.778 288C169.287 288.95 171.512 291.377 173.444 289.444C176.502 286.387 176.982 281.246 182 286C184.963 288.807 190.7 292.785 193.944 289C195.892 286.728 194.764 285.292 198.556 286.556C201.049 287.387 205.354 289.579 206.778 292C208.55 295.013 213.902 291 216.5 291C222.777 291 224.916 294.902 229.222 298.778C230.78 300.18 231.394 290.863 232 289.5C233.634 285.824 236.881 285.559 240 284" stroke="#4B2000" stroke-width="3" stroke-linecap="round"/>
<path d="M70 314C72.167 316.167 78.216 326.322 80.5 321.5C84.087 313.927 86.3522 314.716 92.7778 319C100.559 324.188 98.6988 313 104.5 313C107.88 313 111.369 316.054 113.778 318.222C116.419 320.599 121.752 312 125.556 312C128.628 312 134.501 319.657 136.222 318.556C141.691 315.055 142.639 312.349 148 316.944C149.242 318.009 151.836 320.257 153.556 319.944C156.942 319.329 157.657 314.186 161 314C163.232 313.876 165.831 313.774 167.778 315C169.287 315.95 171.512 318.377 173.444 316.444C176.502 313.387 176.982 308.246 182 313C184.963 315.807 190.7 319.785 193.944 316C195.892 313.728 194.764 312.292 198.556 313.556C201.049 314.387 205.354 316.579 206.778 319C208.55 322.013 213.902 318 216.5 318C222.777 318 224.916 321.902 229.222 325.778C230.78 327.18 231.394 317.863 232 316.5C233.634 312.824 236.881 312.559 240 311" stroke="#4B2000" stroke-width="3" stroke-linecap="round"/>
<path d="M260 78C262.167 80.167 268.216 90.3217 270.5 85.5C274.087 77.9274 276.352 78.7163 282.778 83C290.559 88.1875 288.699 77 294.5 77C297.88 77 301.369 80.0539 303.778 82.2222C306.419 84.599 311.752 76 315.556 76C318.628 76 324.501 83.6569 326.222 82.5556C331.691 79.0553 332.639 76.349 338 80.9444C339.242 82.0094 341.836 84.2571 343.556 83.9444C346.942 83.3288 347.657 78.1857 351 78C353.232 77.876 355.831 77.7743 357.778 79C359.287 79.9505 361.512 82.3772 363.444 80.4444C366.502 77.3867 366.982 72.2463 372 77C374.963 79.8071 380.7 83.7855 383.944 80C385.892 77.7281 384.764 76.2917 388.556 77.5556C391.049 78.3868 395.354 80.5792 396.778 83C398.55 86.0128 403.902 82 406.5 82C412.777 82 414.916 85.9024 419.222 89.7778C420.78 91.1802 421.394 81.8626 422 80.5C423.634 76.8243 426.881 76.5594 430 75" stroke="#4B2000" stroke-width="3" stroke-linecap="round"/>
<path d="M260 105C262.167 107.167 268.216 117.322 270.5 112.5C274.087 104.927 276.352 105.716 282.778 110C290.559 115.188 288.699 104 294.5 104C297.88 104 301.369 107.054 303.778 109.222C306.419 111.599 311.752 103 315.556 103C318.628 103 324.501 110.657 326.222 109.556C331.691 106.055 332.639 103.349 338 107.944C339.242 109.009 341.836 111.257 343.556 110.944C346.942 110.329 347.657 105.186 351 105C353.232 104.876 355.831 104.774 357.778 106C359.287 106.95 361.512 109.377 363.444 107.444C366.502 104.387 366.982 99.2463 372 104C374.963 106.807 380.7 110.785 383.944 107C385.892 104.728 384.764 103.292 388.556 104.556C391.049 105.387 395.354 107.579 396.778 110C398.55 113.013 403.902 109 406.5 109C412.777 109 414.916 112.902 419.222 116.778C420.78 118.18 421.394 108.863 422 107.5C423.634 103.824 426.881 103.559 430 102" stroke="#4B2000" stroke-width="3" stroke-linecap="round"/>
<path d="M260 132C262.167 134.167 268.216 144.322 270.5 139.5C274.087 131.927 276.352 132.716 282.778 137C290.559 142.188 288.699 131 294.5 131C297.88 131 301.369 134.054 303.778 136.222C306.419 138.599 311.752 130 315.556 130C318.628 130 324.501 137.657 326.222 136.556C331.691 133.055 332.639 130.349 338 134.944C339.242 136.009 341.836 138.257 343.556 137.944C346.942 137.329 347.657 132.186 351 132C353.232 131.876 355.831 131.774 357.778 133C359.287 133.95 361.512 136.377 363.444 134.444C366.502 131.387 366.982 126.246 372 131C374.963 133.807 380.7 137.785 383.944 134C385.892 131.728 384.764 130.292 388.556 131.556C391.049 132.387 395.354 134.579 396.778 137C398.55 140.013 403.902 136 406.5 136C412.777 136 414.916 139.902 419.222 143.778C420.78 145.18 421.394 135.863 422 134.5C423.634 130.824 426.881 130.559 430 129" stroke="#4B2000" stroke-width="3" stroke-linecap="round"/>
<path d="M260 159C262.167 161.167 268.216 171.322 270.5 166.5C274.087 158.927 276.352 159.716 282.778 164C290.559 169.188 288.699 158 294.5 158C297.88 158 301.369 161.054 303.778 163.222C306.419 165.599 311.752 157 315.556 157C318.628 157 324.501 164.657 326.222 163.556C331.691 160.055 332.639 157.349 338 161.944C339.242 163.009 341.836 165.257 343.556 164.944C346.942 164.329 347.657 159.186 351 159C353.232 158.876 355.831 158.774 357.778 160C359.287 160.95 361.512 163.377 363.444 161.444C366.502 158.387 366.982 153.246 372 158C374.963 160.807 380.7 164.785 383.944 161C385.892 158.728 384.764 157.292 388.556 158.556C391.049 159.387 395.354 161.579 396.778 164C398.55 167.013 403.902 163 406.5 163C412.777 163 414.916 166.902 419.222 170.778C420.78 172.18 421.394 162.863 422 161.5C423.634 157.824 426.881 157.559 430 156" stroke="#4B2000" stroke-width="3" stroke-linecap="round"/>
<path d="M260 186C262.167 188.167 268.216 198.322 270.5 193.5C274.087 185.927 276.352 186.716 282.778 191C290.559 196.188 288.699 185 294.5 185C297.88 185 301.369 188.054 303.778 190.222C306.419 192.599 311.752 184 315.556 184C318.628 184 324.501 191.657 326.222 190.556C331.691 187.055 332.639 184.349 338 188.944C339.242 190.009 341.836 192.257 343.556 191.944C346.942 191.329 347.657 186.186 351 186C353.232 185.876 355.831 185.774 357.778 187C359.287 187.95 361.512 190.377 363.444 188.444C366.502 185.387 366.982 180.246 372 185C374.963 187.807 380.7 191.785 383.944 188C385.892 185.728 384.764 184.292 388.556 185.556C391.049 186.387 395.354 188.579 396.778 191C398.55 194.013 403.902 190 406.5 190C412.777 190 414.916 193.902 419.222 197.778C420.78 199.18 421.394 189.863 422 188.5C423.634 184.824 426.881 184.559 430 183" stroke="#4B2000" stroke-width="3" stroke-linecap="round"/>
<path d="M260 213C262.167 215.167 268.216 225.322 270.5 220.5C274.087 212.927 276.352 213.716 282.778 218C290.559 223.188 288.699 212 294.5 212C297.88 212 301.369 215.054 303.778 217.222C306.419 219.599 311.752 211 315.556 211C318.628 211 324.501 218.657 326.222 217.556C331.691 214.055 332.639 211.349 338 215.944C339.242 217.009 341.836 219.257 343.556 218.944C346.942 218.329 347.657 213.186 351 213C353.232 212.876 355.831 212.774 357.778 214C359.287 214.95 361.512 217.377 363.444 215.444C366.502 212.387 366.982 207.246 372 212C374.963 214.807 380.7 218.785 383.944 215C385.892 212.728 384.764 211.292 388.556 212.556C391.049 213.387 395.354 215.579 396.778 218C398.55 221.013 403.902 217 406.5 217C412.777 217 414.916 220.902 419.222 224.778C420.78 226.18 421.394 216.863 422 215.5C423.634 211.824 426.881 211.559 430 210" stroke="#4B2000" stroke-width="3" stroke-linecap="round"/>
<path d="M260 240C262.167 242.167 268.216 252.322 270.5 247.5C274.087 239.927 276.352 240.716 282.778 245C290.559 250.188 288.699 239 294.5 239C297.88 239 301.369 242.054 303.778 244.222C306.419 246.599 311.752 238 315.556 238C318.628 238 324.501 245.657 326.222 244.556C331.691 241.055 332.639 238.349 338 242.944C339.242 244.009 341.836 246.257 343.556 245.944C346.942 245.329 347.657 240.186 351 240C353.232 239.876 355.831 239.774 357.778 241C359.287 241.95 361.512 244.377 363.444 242.444C366.502 239.387 366.982 234.246 372 239C374.963 241.807 380.7 245.785 383.944 242C385.892 239.728 384.764 238.292 388.556 239.556C391.049 240.387 395.354 242.579 396.778 245C398.55 248.013 403.902 244 406.5 244C412.777 244 414.916 247.902 419.222 251.778C420.78 253.18 421.394 243.863 422 242.5C423.634 238.824 426.881 238.559 430 237" stroke="#4B2000" stroke-width="3" stroke-linecap="round"/>
<path d="M260 267C262.167 269.167 268.216 279.322 270.5 274.5C274.087 266.927 276.352 267.716 282.778 272C290.559 277.188 288.699 266 294.5 266C297.88 266 301.369 269.054 303.778 271.222C306.419 273.599 311.752 265 315.556 265C318.628 265 324.501 272.657 326.222 271.556C331.691 268.055 332.639 265.349 338 269.944C339.242 271.009 341.836 273.257 343.556 272.944C346.942 272.329 347.657 267.186 351 267C353.232 266.876 355.831 266.774 357.778 268C359.287 268.95 361.512 271.377 363.444 269.444C366.502 266.387 366.982 261.246 372 266C374.963 268.807 380.7 272.785 383.944 269C385.892 266.728 384.764 265.292 388.556 266.556C391.049 267.387 395.354 269.579 396.778 272C398.55 275.013 403.902 271 406.5 271C412.777 271 414.916 274.902 419.222 278.778C420.78 280.18 421.394 270.863 422 269.5C423.634 265.824 426.881 265.559 430 264" stroke="#4B2000" stroke-width="3" stroke-linecap="round"/>
<path d="M260 288C262.167 290.167 268.216 300.322 270.5 295.5C274.087 287.927 276.352 288.716 282.778 293C290.559 298.188 288.699 287 294.5 287C297.88 287 301.369 290.054 303.778 292.222C306.419 294.599 311.752 286 315.556 286C318.628 286 324.501 293.657 326.222 292.556C331.691 289.055 332.639 286.349 338 290.944C339.242 292.009 341.836 294.257 343.556 293.944C346.942 293.329 347.657 288.186 351 288C353.232 287.876 355.831 287.774 357.778 289C359.287 289.95 361.512 292.377 363.444 290.444C366.502 287.387 366.982 282.246 372 287C374.963 289.807 380.7 293.785 383.944 290C385.892 287.728 384.764 286.292 388.556 287.556C391.049 288.387 395.354 290.579 396.778 293C398.55 296.013 403.902 292 406.5 292C412.777 292 414.916 295.902 419.222 299.778C420.78 301.18 421.394 291.863 422 290.5C423.634 286.824 426.881 286.559 430 285" stroke="#4B2000" stroke-width="3" stroke-linecap="round"/>
<path d="M260 315C262.167 317.167 268.216 327.322 270.5 322.5C274.087 314.927 276.352 315.716 282.778 320C290.559 325.188 288.699 314 294.5 314C297.88 314 301.369 317.054 303.778 319.222C306.419 321.599 311.752 313 315.556 313C318.628 313 324.501 320.657 326.222 319.556C331.691 316.055 332.639 313.349 338 317.944C339.242 319.009 341.836 321.257 343.556 320.944C346.942 320.329 347.657 315.186 351 315C353.232 314.876 355.831 314.774 357.778 316C359.287 316.95 361.512 319.377 363.444 317.444C366.502 314.387 366.982 309.246 372 314C374.963 316.807 380.7 320.785 383.944 317C385.892 314.728 384.764 313.292 388.556 314.556C391.049 315.387 395.354 317.579 396.778 320C398.55 323.013 403.902 319 406.5 319C412.777 319 414.916 322.902 419.222 326.778C420.78 328.18 421.394 318.863 422 317.5C423.634 313.824 426.881 313.559 430 312" stroke="#4B2000" stroke-width="3" stroke-linecap="round"/>
</svg>
