<svg width="500" height="400" viewBox="0 0 500 400" fill="none" xmlns="http://www.w3.org/2000/svg">
<g clip-path="url(#clip0_1_3)">
<rect width="500" height="400" fill="white"/>
<rect y="306" width="500" height="308" fill="#4B2000"/>
<rect width="500" height="308" fill="#B1DAFF"/>
<rect x="30" y="233" width="441" height="185" rx="5" fill="#E2E2E2"/>
<rect x="137" y="194" width="227" height="167" fill="#E2E2E2"/>
<circle cx="250.5" cy="194.5" r="113.5" fill="#E2E2E2"/>
<path d="M119.238 47.1797V46.6523C122.266 46.3398 123.809 44.7969 123.809 41.9844V37.2578C123.809 34.2695 124.863 33.0781 127.52 33.0781H128.32V29.8164H127.109C122.07 29.8164 119.805 31.9844 119.805 36.7305V40.6562C119.805 43.6836 118.652 44.7383 115.43 44.7578V49.0742C118.672 49.0938 119.805 50.1484 119.805 53.1758V57.0625C119.805 61.8281 122.09 64.0156 127.109 64.0156H128.32V60.7734H127.52C124.863 60.7734 123.809 59.582 123.809 56.5742V51.8477C123.809 49.0352 122.266 47.4922 119.238 47.1797ZM148.848 54.2109H135.723V29.8164H131.348V58H148.848V54.2109ZM152.227 58H156.445V37.4531H152.227V58ZM154.336 34.4453C155.703 34.4453 156.797 33.3711 156.797 32.043C156.797 30.6953 155.703 29.6211 154.336 29.6211C152.988 29.6211 151.895 30.6953 151.895 32.043C151.895 33.3711 152.988 34.4453 154.336 34.4453ZM161.992 32.5898V37.4531H159.004V40.793H161.992V52.5898C161.992 56.5547 163.613 58.1367 167.773 58.1367C168.711 58.1367 169.648 58.0586 170.117 57.9414V54.6016C169.844 54.6602 169.16 54.6992 168.73 54.6992C167.012 54.6992 166.23 53.8984 166.23 52.1211V40.793H170.137V37.4531H166.23V32.5898H161.992ZM174.844 32.5898V37.4531H171.855V40.793H174.844V52.5898C174.844 56.5547 176.465 58.1367 180.625 58.1367C181.562 58.1367 182.5 58.0586 182.969 57.9414V54.6016C182.695 54.6602 182.012 54.6992 181.582 54.6992C179.863 54.6992 179.082 53.8984 179.082 52.1211V40.793H182.988V37.4531H179.082V32.5898H174.844ZM186.621 58H190.84V29.8164H186.621V58ZM203.77 40.4805C206.719 40.4805 208.711 42.6875 208.809 45.832H198.535C198.75 42.7266 200.82 40.4805 203.77 40.4805ZM208.789 51.9648C208.223 53.7617 206.445 54.9727 204.043 54.9727C200.664 54.9727 198.516 52.6094 198.516 49.0352V48.7812H213.027V47.3359C213.027 41.1055 209.473 37.082 203.77 37.082C197.969 37.082 194.258 41.3789 194.258 47.8242C194.258 54.3086 197.91 58.3906 203.945 58.3906C208.652 58.3906 212.207 55.7148 212.793 51.9648H208.789ZM229.316 33.4883H235.332C238.711 33.4883 240.762 35.4023 240.762 38.5469C240.762 41.7695 238.828 43.625 235.449 43.625H229.316V33.4883ZM229.316 47.1602H235.332L241.074 58H246.113L239.805 46.4766C243.242 45.3242 245.273 42.2383 245.273 38.4297C245.273 33.1758 241.66 29.8164 235.859 29.8164H224.941V58H229.316V47.1602ZM257.754 58.3906C263.633 58.3906 267.5 54.3477 267.5 47.7266C267.5 41.125 263.613 37.082 257.754 37.082C251.895 37.082 248.008 41.125 248.008 47.7266C248.008 54.3477 251.875 58.3906 257.754 58.3906ZM257.754 54.9141C254.453 54.9141 252.305 52.2969 252.305 47.7266C252.305 43.1758 254.453 40.5586 257.754 40.5586C261.055 40.5586 263.203 43.1758 263.203 47.7266C263.203 52.2969 261.074 54.9141 257.754 54.9141ZM288.398 44.5234C288.027 40.4805 284.805 37.082 279.512 37.082C273.672 37.082 269.844 41.2031 269.844 47.7266C269.844 54.3672 273.672 58.3906 279.551 58.3906C284.492 58.3906 287.988 55.4219 288.438 51.0469H284.375C283.887 53.4297 282.188 54.8555 279.59 54.8555C276.309 54.8555 274.141 52.2383 274.141 47.7266C274.141 43.3125 276.289 40.5977 279.551 40.5977C282.305 40.5977 283.945 42.3359 284.375 44.5234H288.398ZM295.84 46.2617H295.801V29.8164H291.582V58H295.801V50.6172L297.559 48.8789L304.531 58H309.434L300.586 46.3008L309.102 37.4531H304.141L295.84 46.2617ZM343.477 58V29.8164H339.102V41.7305H324.629V29.8164H320.254V58H324.629V45.5195H339.102V58H343.477ZM347.402 50.1484C347.676 55.2461 351.895 58.4688 358.145 58.4688C364.824 58.4688 369.023 55.168 369.023 49.8945C369.023 45.7734 366.621 43.4492 360.84 42.082L357.734 41.3203C354.102 40.4219 352.617 39.25 352.617 37.2578C352.617 34.7578 354.941 33.0391 358.34 33.0391C361.738 33.0391 364.062 34.7383 364.316 37.5508H368.574C368.438 32.6875 364.355 29.3477 358.398 29.3477C352.383 29.3477 348.145 32.6875 348.145 37.5508C348.145 41.4766 350.547 43.8984 355.723 45.1484L359.375 46.0273C363.027 46.9258 364.57 48.2344 364.57 50.4219C364.57 52.9414 362.012 54.7773 358.457 54.7773C354.746 54.7773 352.031 52.9414 351.719 50.1484H347.402ZM379.863 47.1797C376.875 47.4727 375.293 49.0352 375.293 51.8867V56.5938C375.293 59.5625 374.219 60.7734 371.582 60.7734H370.781V64.0156H371.992C377.012 64.0156 379.297 61.7891 379.297 56.9258V53.1367C379.297 50.1484 380.41 49.0938 383.672 49.0742V44.7578C380.449 44.7383 379.297 43.6836 379.297 40.6562V36.7305C379.297 31.9844 377.012 29.8164 371.992 29.8164H370.781V33.0781H371.582C374.238 33.0781 375.293 34.2695 375.293 37.2578V41.9844C375.293 44.7969 376.836 46.3398 379.863 46.6523V47.1797Z" fill="black"/>
<rect x="58" y="255" width="66" height="122" rx="7" fill="#5AA5EB"/>
<rect x="377" y="255" width="66" height="122" rx="7" fill="#5AA5EB"/>
<rect x="189" y="252" width="123" height="160" rx="9" fill="#221000"/>
<path d="M311.498 160H193.502C193.771 127.645 220.082 101.5 252.5 101.5C284.918 101.5 311.229 127.645 311.498 160Z" fill="#5AA5EB" stroke="#5AA5EB"/>
</g>
<defs>
<clipPath id="clip0_1_3">
<rect width="500" height="400" fill="white"/>
</clipPath>
</defs>
</svg>
