<svg width="500" height="400" viewBox="0 0 500 400" fill="none" xmlns="http://www.w3.org/2000/svg">
<rect width="500" height="400" fill="#B1DAFF"/>
<rect x="226" y="202" width="56" height="137" rx="10" fill="#4B2000"/>
<rect x="56" y="62" width="387" height="149" rx="10" fill="#4B2000"/>
<path d="M81.37 127C80.9733 127 80.6583 126.883 80.425 126.65C80.1917 126.417 80.0517 126.148 80.005 125.845L76.19 103.48C76.1667 103.433 76.155 103.387 76.155 103.34C76.155 103.293 76.155 103.258 76.155 103.235C76.155 103.048 76.225 102.885 76.365 102.745C76.5283 102.582 76.7033 102.5 76.89 102.5H81.23C81.8833 102.5 82.245 102.757 82.315 103.27L84.59 116.955L87.11 108.87C87.18 108.683 87.2967 108.485 87.46 108.275C87.6233 108.042 87.8917 107.925 88.265 107.925H90.785C91.1817 107.925 91.4617 108.042 91.625 108.275C91.7883 108.485 91.8933 108.683 91.94 108.87L94.46 116.92L96.735 103.27C96.805 102.757 97.1667 102.5 97.82 102.5H102.16C102.37 102.5 102.545 102.582 102.685 102.745C102.825 102.885 102.895 103.048 102.895 103.235C102.895 103.258 102.895 103.293 102.895 103.34C102.895 103.387 102.895 103.433 102.895 103.48L99.08 125.845C99.0333 126.148 98.8933 126.417 98.66 126.65C98.4267 126.883 98.1117 127 97.715 127H94.39C93.9933 127 93.69 126.895 93.48 126.685C93.27 126.475 93.13 126.277 93.06 126.09L89.525 116.08L85.99 126.09C85.92 126.277 85.78 126.475 85.57 126.685C85.3833 126.895 85.0917 127 84.695 127H81.37ZM107.378 127C107.121 127 106.911 126.918 106.748 126.755C106.584 126.592 106.503 126.382 106.503 126.125V103.375C106.503 103.118 106.584 102.908 106.748 102.745C106.911 102.582 107.121 102.5 107.378 102.5H123.723C123.979 102.5 124.189 102.582 124.353 102.745C124.516 102.908 124.598 103.118 124.598 103.375V106.665C124.598 106.922 124.516 107.132 124.353 107.295C124.189 107.458 123.979 107.54 123.723 107.54H112.558V112.265H122.953C123.209 112.265 123.419 112.358 123.583 112.545C123.746 112.708 123.828 112.918 123.828 113.175V116.22C123.828 116.453 123.746 116.663 123.583 116.85C123.419 117.013 123.209 117.095 122.953 117.095H112.558V121.96H124.003C124.259 121.96 124.469 122.042 124.633 122.205C124.796 122.368 124.878 122.578 124.878 122.835V126.125C124.878 126.382 124.796 126.592 124.633 126.755C124.469 126.918 124.259 127 124.003 127H107.378ZM137.182 127C136.926 127 136.716 126.918 136.552 126.755C136.389 126.592 136.307 126.382 136.307 126.125V103.375C136.307 103.118 136.389 102.908 136.552 102.745C136.716 102.582 136.926 102.5 137.182 102.5H146.282C148.569 102.5 150.517 102.873 152.127 103.62C153.737 104.343 154.974 105.417 155.837 106.84C156.701 108.24 157.167 109.978 157.237 112.055C157.261 113.082 157.272 113.98 157.272 114.75C157.272 115.52 157.261 116.407 157.237 117.41C157.144 119.58 156.677 121.377 155.837 122.8C155.021 124.223 153.819 125.285 152.232 125.985C150.669 126.662 148.744 127 146.457 127H137.182ZM142.572 121.96H146.282C147.286 121.96 148.114 121.808 148.767 121.505C149.444 121.178 149.946 120.677 150.272 120C150.622 119.323 150.809 118.437 150.832 117.34C150.879 116.663 150.902 116.057 150.902 115.52C150.926 114.983 150.926 114.447 150.902 113.91C150.902 113.373 150.879 112.778 150.832 112.125C150.786 110.538 150.366 109.383 149.572 108.66C148.802 107.913 147.647 107.54 146.107 107.54H142.572V121.96ZM162.236 127C161.979 127 161.769 126.918 161.606 126.755C161.443 126.592 161.361 126.382 161.361 126.125V103.375C161.361 103.118 161.443 102.908 161.606 102.745C161.769 102.582 161.979 102.5 162.236 102.5H178.581C178.838 102.5 179.048 102.582 179.211 102.745C179.374 102.908 179.456 103.118 179.456 103.375V106.665C179.456 106.922 179.374 107.132 179.211 107.295C179.048 107.458 178.838 107.54 178.581 107.54H167.416V112.265H177.811C178.068 112.265 178.278 112.358 178.441 112.545C178.604 112.708 178.686 112.918 178.686 113.175V116.22C178.686 116.453 178.604 116.663 178.441 116.85C178.278 117.013 178.068 117.095 177.811 117.095H167.416V121.96H178.861C179.118 121.96 179.328 122.042 179.491 122.205C179.654 122.368 179.736 122.578 179.736 122.835V126.125C179.736 126.382 179.654 126.592 179.491 126.755C179.328 126.918 179.118 127 178.861 127H162.236ZM184.59 127C184.356 127 184.146 126.918 183.96 126.755C183.796 126.592 183.715 126.382 183.715 126.125V103.375C183.715 103.118 183.796 102.908 183.96 102.745C184.146 102.582 184.356 102.5 184.59 102.5H188.37C188.743 102.5 189.023 102.605 189.21 102.815C189.42 103.002 189.548 103.153 189.595 103.27L195.755 114.33L201.915 103.27C201.985 103.153 202.101 103.002 202.265 102.815C202.451 102.605 202.743 102.5 203.14 102.5H206.885C207.141 102.5 207.351 102.582 207.515 102.745C207.701 102.908 207.795 103.118 207.795 103.375V126.125C207.795 126.382 207.701 126.592 207.515 126.755C207.351 126.918 207.141 127 206.885 127H202.72C202.463 127 202.241 126.918 202.055 126.755C201.891 126.592 201.81 126.382 201.81 126.125V113L197.855 120.315C197.761 120.525 197.621 120.712 197.435 120.875C197.248 121.038 196.991 121.12 196.665 121.12H194.845C194.518 121.12 194.261 121.038 194.075 120.875C193.888 120.712 193.736 120.525 193.62 120.315L189.665 113V126.125C189.665 126.382 189.583 126.592 189.42 126.755C189.256 126.918 189.046 127 188.79 127H184.59ZM211.265 127C211.078 127 210.903 126.93 210.74 126.79C210.6 126.627 210.53 126.452 210.53 126.265C210.53 126.148 210.542 126.043 210.565 125.95L218.79 103.48C218.86 103.223 219 103.002 219.21 102.815C219.443 102.605 219.758 102.5 220.155 102.5H225.335C225.732 102.5 226.035 102.605 226.245 102.815C226.478 103.002 226.63 103.223 226.7 103.48L234.89 125.95C234.937 126.043 234.96 126.148 234.96 126.265C234.96 126.452 234.878 126.627 234.715 126.79C234.575 126.93 234.4 127 234.19 127H229.885C229.535 127 229.267 126.918 229.08 126.755C228.917 126.568 228.812 126.405 228.765 126.265L227.4 122.695H218.055L216.725 126.265C216.678 126.405 216.573 126.568 216.41 126.755C216.247 126.918 215.967 127 215.57 127H211.265ZM219.49 117.655H226L222.71 108.415L219.49 117.655ZM238.594 127C238.337 127 238.127 126.918 237.964 126.755C237.8 126.592 237.719 126.382 237.719 126.125V103.375C237.719 103.118 237.8 102.908 237.964 102.745C238.127 102.582 238.337 102.5 238.594 102.5H242.304C242.7 102.5 242.98 102.593 243.144 102.78C243.33 102.943 243.447 103.072 243.494 103.165L252.034 116.64V103.375C252.034 103.118 252.115 102.908 252.279 102.745C252.442 102.582 252.652 102.5 252.909 102.5H257.109C257.365 102.5 257.575 102.582 257.739 102.745C257.902 102.908 257.984 103.118 257.984 103.375V126.125C257.984 126.358 257.902 126.568 257.739 126.755C257.575 126.918 257.365 127 257.109 127H253.364C252.99 127 252.71 126.907 252.524 126.72C252.36 126.533 252.255 126.405 252.209 126.335L243.669 113.385V126.125C243.669 126.382 243.587 126.592 243.424 126.755C243.26 126.918 243.05 127 242.794 127H238.594ZM263.75 127C263.493 127 263.283 126.918 263.12 126.755C262.956 126.592 262.875 126.382 262.875 126.125V103.375C262.875 103.118 262.956 102.908 263.12 102.745C263.283 102.582 263.493 102.5 263.75 102.5H272.85C275.136 102.5 277.085 102.873 278.695 103.62C280.305 104.343 281.541 105.417 282.405 106.84C283.268 108.24 283.735 109.978 283.805 112.055C283.828 113.082 283.84 113.98 283.84 114.75C283.84 115.52 283.828 116.407 283.805 117.41C283.711 119.58 283.245 121.377 282.405 122.8C281.588 124.223 280.386 125.285 278.8 125.985C277.236 126.662 275.311 127 273.025 127H263.75ZM269.14 121.96H272.85C273.853 121.96 274.681 121.808 275.335 121.505C276.011 121.178 276.513 120.677 276.84 120C277.19 119.323 277.376 118.437 277.4 117.34C277.446 116.663 277.47 116.057 277.47 115.52C277.493 114.983 277.493 114.447 277.47 113.91C277.47 113.373 277.446 112.778 277.4 112.125C277.353 110.538 276.933 109.383 276.14 108.66C275.37 107.913 274.215 107.54 272.675 107.54H269.14V121.96ZM296.255 127C295.998 127 295.788 126.918 295.625 126.755C295.461 126.592 295.38 126.382 295.38 126.125V103.375C295.38 103.118 295.461 102.908 295.625 102.745C295.788 102.582 295.998 102.5 296.255 102.5H305.775C308.785 102.5 311.153 103.2 312.88 104.6C314.63 105.977 315.505 107.937 315.505 110.48C315.505 112.137 315.096 113.537 314.28 114.68C313.486 115.823 312.436 116.687 311.13 117.27L315.96 125.88C316.03 126.02 316.065 126.148 316.065 126.265C316.065 126.452 315.983 126.627 315.82 126.79C315.68 126.93 315.505 127 315.295 127H310.675C310.231 127 309.905 126.895 309.695 126.685C309.485 126.452 309.333 126.242 309.24 126.055L305.25 118.355H301.645V126.125C301.645 126.382 301.563 126.592 301.4 126.755C301.236 126.918 301.026 127 300.77 127H296.255ZM301.645 113.42H305.705C306.801 113.42 307.618 113.152 308.155 112.615C308.715 112.078 308.995 111.343 308.995 110.41C308.995 109.5 308.726 108.765 308.19 108.205C307.676 107.645 306.848 107.365 305.705 107.365H301.645V113.42ZM320.454 127C320.197 127 319.987 126.918 319.824 126.755C319.661 126.592 319.579 126.382 319.579 126.125V103.375C319.579 103.118 319.661 102.908 319.824 102.745C319.987 102.582 320.197 102.5 320.454 102.5H325.144C325.401 102.5 325.611 102.582 325.774 102.745C325.937 102.908 326.019 103.118 326.019 103.375V126.125C326.019 126.382 325.937 126.592 325.774 126.755C325.611 126.918 325.401 127 325.144 127H320.454ZM341.042 127.35C338.825 127.35 336.912 126.988 335.302 126.265C333.715 125.518 332.478 124.445 331.592 123.045C330.728 121.622 330.25 119.895 330.157 117.865C330.133 116.862 330.122 115.8 330.122 114.68C330.122 113.537 330.133 112.452 330.157 111.425C330.25 109.442 330.74 107.762 331.627 106.385C332.513 105.008 333.762 103.958 335.372 103.235C336.982 102.512 338.872 102.15 341.042 102.15C342.792 102.15 344.343 102.372 345.697 102.815C347.05 103.235 348.182 103.807 349.092 104.53C350.025 105.253 350.725 106.047 351.192 106.91C351.682 107.773 351.938 108.625 351.962 109.465C351.985 109.675 351.915 109.85 351.752 109.99C351.612 110.13 351.437 110.2 351.227 110.2H346.117C345.86 110.2 345.662 110.165 345.522 110.095C345.405 110.002 345.3 109.873 345.207 109.71C345.043 109.36 344.798 108.998 344.472 108.625C344.168 108.228 343.737 107.89 343.177 107.61C342.64 107.33 341.928 107.19 341.042 107.19C339.712 107.19 338.662 107.54 337.892 108.24C337.145 108.94 336.737 110.06 336.667 111.6C336.597 113.607 336.597 115.637 336.667 117.69C336.737 119.323 337.168 120.502 337.962 121.225C338.755 121.948 339.805 122.31 341.112 122.31C341.998 122.31 342.78 122.158 343.457 121.855C344.157 121.552 344.705 121.085 345.102 120.455C345.498 119.802 345.697 118.973 345.697 117.97V117.305H342.407C342.15 117.305 341.928 117.223 341.742 117.06C341.578 116.873 341.497 116.652 341.497 116.395V113.805C341.497 113.548 341.578 113.338 341.742 113.175C341.928 112.988 342.15 112.895 342.407 112.895H351.227C351.483 112.895 351.693 112.988 351.857 113.175C352.02 113.338 352.102 113.548 352.102 113.805V117.795C352.102 119.802 351.647 121.517 350.737 122.94C349.827 124.363 348.532 125.46 346.852 126.23C345.195 126.977 343.258 127.35 341.042 127.35ZM356.992 127C356.735 127 356.525 126.918 356.362 126.755C356.199 126.592 356.117 126.382 356.117 126.125V103.375C356.117 103.118 356.199 102.908 356.362 102.745C356.525 102.582 356.735 102.5 356.992 102.5H361.507C361.764 102.5 361.974 102.582 362.137 102.745C362.3 102.908 362.382 103.118 362.382 103.375V111.81H371.027V103.375C371.027 103.118 371.109 102.908 371.272 102.745C371.435 102.582 371.645 102.5 371.902 102.5H376.417C376.674 102.5 376.884 102.582 377.047 102.745C377.21 102.908 377.292 103.118 377.292 103.375V126.125C377.292 126.382 377.21 126.592 377.047 126.755C376.884 126.918 376.674 127 376.417 127H371.902C371.645 127 371.435 126.918 371.272 126.755C371.109 126.592 371.027 126.382 371.027 126.125V117.41H362.382V126.125C362.382 126.382 362.3 126.592 362.137 126.755C361.974 126.918 361.764 127 361.507 127H356.992ZM388.461 127C388.204 127 387.994 126.918 387.831 126.755C387.668 126.592 387.586 126.382 387.586 126.125V107.995H381.356C381.099 107.995 380.889 107.913 380.726 107.75C380.563 107.563 380.481 107.353 380.481 107.12V103.375C380.481 103.118 380.563 102.908 380.726 102.745C380.889 102.582 381.099 102.5 381.356 102.5H400.186C400.443 102.5 400.653 102.582 400.816 102.745C400.979 102.908 401.061 103.118 401.061 103.375V107.12C401.061 107.353 400.979 107.563 400.816 107.75C400.653 107.913 400.443 107.995 400.186 107.995H393.956V126.125C393.956 126.382 393.874 126.592 393.711 126.755C393.548 126.918 393.338 127 393.081 127H388.461ZM413.309 127.35C410.975 127.35 409.039 127.023 407.499 126.37C405.959 125.693 404.792 124.818 403.999 123.745C403.205 122.672 402.785 121.528 402.739 120.315C402.739 120.128 402.809 119.965 402.949 119.825C403.112 119.662 403.299 119.58 403.509 119.58H407.919C408.245 119.58 408.49 119.638 408.654 119.755C408.84 119.872 409.004 120.023 409.144 120.21C409.33 120.56 409.587 120.898 409.914 121.225C410.264 121.552 410.707 121.82 411.244 122.03C411.804 122.217 412.492 122.31 413.309 122.31C414.662 122.31 415.677 122.1 416.354 121.68C417.054 121.26 417.404 120.688 417.404 119.965C417.404 119.452 417.217 119.032 416.844 118.705C416.47 118.355 415.864 118.052 415.024 117.795C414.207 117.515 413.11 117.235 411.734 116.955C409.96 116.582 408.444 116.103 407.184 115.52C405.947 114.913 405.002 114.132 404.349 113.175C403.695 112.195 403.369 110.982 403.369 109.535C403.369 108.112 403.765 106.84 404.559 105.72C405.375 104.6 406.507 103.725 407.954 103.095C409.4 102.465 411.115 102.15 413.099 102.15C414.709 102.15 416.12 102.36 417.334 102.78C418.57 103.2 419.609 103.76 420.449 104.46C421.289 105.16 421.919 105.907 422.339 106.7C422.782 107.47 423.015 108.228 423.039 108.975C423.039 109.162 422.969 109.337 422.829 109.5C422.689 109.64 422.514 109.71 422.304 109.71H417.684C417.427 109.71 417.205 109.663 417.019 109.57C416.832 109.477 416.669 109.325 416.529 109.115C416.389 108.602 416.015 108.158 415.409 107.785C414.825 107.388 414.055 107.19 413.099 107.19C412.072 107.19 411.267 107.377 410.684 107.75C410.124 108.1 409.844 108.648 409.844 109.395C409.844 109.862 409.995 110.27 410.299 110.62C410.625 110.97 411.15 111.273 411.874 111.53C412.62 111.787 413.635 112.055 414.919 112.335C417.042 112.732 418.757 113.233 420.064 113.84C421.37 114.423 422.327 115.193 422.934 116.15C423.54 117.083 423.844 118.262 423.844 119.685C423.844 121.272 423.389 122.648 422.479 123.815C421.592 124.958 420.355 125.833 418.769 126.44C417.182 127.047 415.362 127.35 413.309 127.35Z" fill="white"/>
<path d="M212.325 180C212.068 180 211.858 179.918 211.695 179.755C211.532 179.592 211.45 179.382 211.45 179.125V156.375C211.45 156.118 211.532 155.908 211.695 155.745C211.858 155.582 212.068 155.5 212.325 155.5H216.035C216.432 155.5 216.712 155.593 216.875 155.78C217.062 155.943 217.178 156.072 217.225 156.165L225.765 169.64V156.375C225.765 156.118 225.847 155.908 226.01 155.745C226.173 155.582 226.383 155.5 226.64 155.5H230.84C231.097 155.5 231.307 155.582 231.47 155.745C231.633 155.908 231.715 156.118 231.715 156.375V179.125C231.715 179.358 231.633 179.568 231.47 179.755C231.307 179.918 231.097 180 230.84 180H227.095C226.722 180 226.442 179.907 226.255 179.72C226.092 179.533 225.987 179.405 225.94 179.335L217.4 166.385V179.125C217.4 179.382 217.318 179.592 217.155 179.755C216.992 179.918 216.782 180 216.525 180H212.325ZM246.616 180.35C244.47 180.35 242.603 180 241.016 179.3C239.43 178.6 238.193 177.55 237.306 176.15C236.42 174.727 235.93 172.953 235.836 170.83C235.813 169.827 235.801 168.823 235.801 167.82C235.801 166.817 235.813 165.802 235.836 164.775C235.93 162.675 236.42 160.913 237.306 159.49C238.216 158.043 239.465 156.958 241.051 156.235C242.638 155.512 244.493 155.15 246.616 155.15C248.716 155.15 250.56 155.512 252.146 156.235C253.756 156.958 255.016 158.043 255.926 159.49C256.836 160.913 257.326 162.675 257.396 164.775C257.443 165.802 257.466 166.817 257.466 167.82C257.466 168.823 257.443 169.827 257.396 170.83C257.303 172.953 256.813 174.727 255.926 176.15C255.04 177.55 253.803 178.6 252.216 179.3C250.63 180 248.763 180.35 246.616 180.35ZM246.616 175.31C247.853 175.31 248.856 174.937 249.626 174.19C250.42 173.443 250.84 172.253 250.886 170.62C250.933 169.593 250.956 168.625 250.956 167.715C250.956 166.805 250.933 165.86 250.886 164.88C250.84 163.783 250.63 162.897 250.256 162.22C249.906 161.52 249.416 161.007 248.786 160.68C248.156 160.353 247.433 160.19 246.616 160.19C245.823 160.19 245.111 160.353 244.481 160.68C243.851 161.007 243.35 161.52 242.976 162.22C242.603 162.897 242.393 163.783 242.346 164.88C242.323 165.86 242.311 166.805 242.311 167.715C242.311 168.625 242.323 169.593 242.346 170.62C242.416 172.253 242.836 173.443 243.606 174.19C244.376 174.937 245.38 175.31 246.616 175.31ZM265.17 180C264.773 180 264.458 179.883 264.225 179.65C263.991 179.417 263.851 179.148 263.805 178.845L259.99 156.48C259.966 156.433 259.955 156.387 259.955 156.34C259.955 156.293 259.955 156.258 259.955 156.235C259.955 156.048 260.025 155.885 260.165 155.745C260.328 155.582 260.503 155.5 260.69 155.5H265.03C265.683 155.5 266.045 155.757 266.115 156.27L268.39 169.955L270.91 161.87C270.98 161.683 271.096 161.485 271.26 161.275C271.423 161.042 271.691 160.925 272.065 160.925H274.585C274.981 160.925 275.261 161.042 275.425 161.275C275.588 161.485 275.693 161.683 275.74 161.87L278.26 169.92L280.535 156.27C280.605 155.757 280.966 155.5 281.62 155.5H285.96C286.17 155.5 286.345 155.582 286.485 155.745C286.625 155.885 286.695 156.048 286.695 156.235C286.695 156.258 286.695 156.293 286.695 156.34C286.695 156.387 286.695 156.433 286.695 156.48L282.88 178.845C282.833 179.148 282.693 179.417 282.46 179.65C282.226 179.883 281.911 180 281.515 180H278.19C277.793 180 277.49 179.895 277.28 179.685C277.07 179.475 276.93 179.277 276.86 179.09L273.325 169.08L269.79 179.09C269.72 179.277 269.58 179.475 269.37 179.685C269.183 179.895 268.891 180 268.495 180H265.17ZM290.933 172.265C290.676 172.265 290.466 172.183 290.303 172.02C290.139 171.833 290.058 171.623 290.058 171.39V156.375C290.058 156.118 290.139 155.908 290.303 155.745C290.466 155.582 290.676 155.5 290.933 155.5H294.958C295.191 155.5 295.389 155.582 295.553 155.745C295.739 155.908 295.833 156.118 295.833 156.375V171.39C295.833 171.623 295.739 171.833 295.553 172.02C295.389 172.183 295.191 172.265 294.958 172.265H290.933ZM290.793 180C290.536 180 290.326 179.918 290.163 179.755C289.999 179.592 289.918 179.382 289.918 179.125V174.82C289.918 174.563 289.999 174.353 290.163 174.19C290.326 174.003 290.536 173.91 290.793 173.91H295.098C295.331 173.91 295.529 174.003 295.693 174.19C295.879 174.353 295.973 174.563 295.973 174.82V179.125C295.973 179.382 295.879 179.592 295.693 179.755C295.529 179.918 295.331 180 295.098 180H290.793Z" fill="white"/>
</svg>
